<?xml version="1.0" encoding="UTF-8" standalone="no"?>
<!DOCTYPE svg PUBLIC "-//W3C//DTD SVG 1.1//EN"
 "http://www.w3.org/Graphics/SVG/1.1/DTD/svg11.dtd">
<!-- Generated by graphviz version 2.38.0 (20140413.2041)
 -->
<!-- Title: Struc Pages: 1 -->
<svg width="1423pt" height="796pt"
 viewBox="0.00 0.00 1423.04 796.00" xmlns="http://www.w3.org/2000/svg" xmlns:xlink="http://www.w3.org/1999/xlink">
<g id="graph0" class="graph" transform="scale(1 1) rotate(0) translate(4 792)">
<title>Struc</title>
<polygon fill="white" stroke="none" points="-4,4 -4,-792 1419.04,-792 1419.04,4 -4,4"/>
<!-- n0 -->
<g id="node1" class="node"><title>n0</title>
<ellipse fill="none" stroke="black" cx="817.042" cy="-770" rx="132.677" ry="18"/>
<text text-anchor="middle" x="817.042" y="-766.3" font-family="Helvetica,sans-Serif" font-size="14.00">(observe_solenoid sole1 hole1)</text>
</g>
<!-- n1 -->
<g id="node2" class="node"><title>n1</title>
<ellipse fill="none" stroke="black" cx="677.042" cy="-683" rx="85.5853" ry="18"/>
<text text-anchor="middle" x="677.042" y="-679.3" font-family="Helvetica,sans-Serif" font-size="14.00">(move sole1 hole1)</text>
</g>
<!-- n0&#45;&gt;n1 -->
<g id="edge1" class="edge"><title>n0&#45;&gt;n1</title>
<path fill="none" stroke="black" d="M757.672,-753.902C743.948,-748.855 729.905,-742.325 718.042,-734 708.572,-727.354 700.081,-717.956 693.317,-709.098"/>
<polygon fill="black" stroke="black" points="696.075,-706.939 687.385,-700.878 690.399,-711.035 696.075,-706.939"/>
<text text-anchor="middle" x="796.042" y="-722.8" font-family="Helvetica,sans-Serif" font-size="14.00"> (sensed_on sole1 hole1) </text>
</g>
<!-- n2 -->
<g id="node3" class="node"><title>n2</title>
<ellipse fill="none" stroke="black" cx="938.042" cy="-683" rx="132.677" ry="18"/>
<text text-anchor="middle" x="938.042" y="-679.3" font-family="Helvetica,sans-Serif" font-size="14.00">(observe_solenoid sole2 hole2)</text>
</g>
<!-- n0&#45;&gt;n2 -->
<g id="edge2" class="edge"><title>n0&#45;&gt;n2</title>
<path fill="none" stroke="black" d="M848.403,-752.388C858.122,-746.877 868.721,-740.485 878.042,-734 889.548,-725.996 901.544,-716.303 911.759,-707.591"/>
<polygon fill="black" stroke="black" points="914.258,-710.058 919.526,-700.866 909.675,-704.766 914.258,-710.058"/>
<text text-anchor="middle" x="950.042" y="-722.8" font-family="Helvetica,sans-Serif" font-size="14.00"> (removed sole1) </text>
</g>
<!-- n3 -->
<g id="node4" class="node"><title>n3</title>
<ellipse fill="none" stroke="black" cx="338.042" cy="-592" rx="89.0842" ry="18"/>
<text text-anchor="middle" x="338.042" y="-588.3" font-family="Helvetica,sans-Serif" font-size="14.00">(pickup sole1 hole1)</text>
</g>
<!-- n1&#45;&gt;n3 -->
<g id="edge3" class="edge"><title>n1&#45;&gt;n3</title>
<path fill="none" stroke="black" d="M595.753,-677.174C548.74,-672.649 488.99,-663.899 438.042,-647 414.438,-639.171 389.837,-625.961 370.942,-614.567"/>
<polygon fill="black" stroke="black" points="372.77,-611.583 362.42,-609.319 369.099,-617.543 372.77,-611.583"/>
<text text-anchor="middle" x="555.542" y="-635.8" font-family="Helvetica,sans-Serif" font-size="14.00"> (no_human_at sole1) (robot_at hole1) </text>
</g>
<!-- n4 -->
<g id="node5" class="node"><title>n4</title>
<ellipse fill="none" stroke="black" cx="677.042" cy="-592" rx="132.677" ry="18"/>
<text text-anchor="middle" x="677.042" y="-588.3" font-family="Helvetica,sans-Serif" font-size="14.00">(observe_solenoid sole2 hole2)</text>
</g>
<!-- n1&#45;&gt;n4 -->
<g id="edge4" class="edge"><title>n1&#45;&gt;n4</title>
<path fill="none" stroke="black" d="M677.042,-664.84C677.042,-652.281 677.042,-634.979 677.042,-620.502"/>
<polygon fill="black" stroke="black" points="680.542,-620.107 677.042,-610.107 673.542,-620.107 680.542,-620.107"/>
<text text-anchor="middle" x="785.042" y="-635.8" font-family="Helvetica,sans-Serif" font-size="14.00"> (human_at sole1) (removed sole1) </text>
</g>
<!-- n5 -->
<g id="node6" class="node"><title>n5</title>
<ellipse fill="none" stroke="black" cx="952.042" cy="-592" rx="85.5853" ry="18"/>
<text text-anchor="middle" x="952.042" y="-588.3" font-family="Helvetica,sans-Serif" font-size="14.00">(move sole2 hole2)</text>
</g>
<!-- n2&#45;&gt;n5 -->
<g id="edge5" class="edge"><title>n2&#45;&gt;n5</title>
<path fill="none" stroke="black" d="M937.115,-664.754C936.911,-655.061 937.182,-642.78 939.042,-632 939.732,-628 940.758,-623.852 941.935,-619.82"/>
<polygon fill="black" stroke="black" points="945.304,-620.776 945.07,-610.184 938.648,-618.61 945.304,-620.776"/>
<text text-anchor="middle" x="1017.04" y="-635.8" font-family="Helvetica,sans-Serif" font-size="14.00"> (sensed_on sole2 hole2) </text>
</g>
<!-- n6 -->
<g id="node7" class="node"><title>n6</title>
<ellipse fill="none" stroke="black" cx="1117.04" cy="-592" rx="18" ry="18"/>
<ellipse fill="none" stroke="black" cx="1117.04" cy="-592" rx="22" ry="22"/>
</g>
<!-- n2&#45;&gt;n6 -->
<g id="edge6" class="edge"><title>n2&#45;&gt;n6</title>
<path fill="none" stroke="black" d="M1026.63,-669.549C1055.96,-663.907 1083.95,-656.373 1095.04,-647 1102.23,-640.923 1107.1,-632.135 1110.39,-623.407"/>
<polygon fill="black" stroke="black" points="1113.77,-624.318 1113.46,-613.727 1107.1,-622.197 1113.77,-624.318"/>
<text text-anchor="middle" x="1160.04" y="-635.8" font-family="Helvetica,sans-Serif" font-size="14.00"> (removed sole2) </text>
</g>
<!-- n7 -->
<g id="node8" class="node"><title>n7</title>
<ellipse fill="none" stroke="black" cx="321.042" cy="-497" rx="83.3857" ry="18"/>
<text text-anchor="middle" x="321.042" y="-493.3" font-family="Helvetica,sans-Serif" font-size="14.00">(carry sole1 hole1)</text>
</g>
<!-- n3&#45;&gt;n7 -->
<g id="edge7" class="edge"><title>n3&#45;&gt;n7</title>
<path fill="none" stroke="black" d="M334.924,-573.942C332.447,-560.394 328.935,-541.18 326.063,-525.469"/>
<polygon fill="black" stroke="black" points="329.439,-524.472 324.198,-515.264 322.553,-525.731 329.439,-524.472"/>
<text text-anchor="middle" x="384.042" y="-540.8" font-family="Helvetica,sans-Serif" font-size="14.00"> (removed sole1) </text>
</g>
<!-- n8 -->
<g id="node9" class="node"><title>n8</title>
<ellipse fill="none" stroke="black" cx="569.042" cy="-497" rx="85.5853" ry="18"/>
<text text-anchor="middle" x="569.042" y="-493.3" font-family="Helvetica,sans-Serif" font-size="14.00">(move sole2 hole2)</text>
</g>
<!-- n4&#45;&gt;n8 -->
<g id="edge8" class="edge"><title>n4&#45;&gt;n8</title>
<path fill="none" stroke="black" d="M598.93,-577.38C586.01,-571.633 574.19,-563.5 566.042,-552 560.599,-544.319 559.88,-534.371 561.019,-525.11"/>
<polygon fill="black" stroke="black" points="564.492,-525.585 562.943,-515.104 557.618,-524.263 564.492,-525.585"/>
<text text-anchor="middle" x="644.042" y="-540.8" font-family="Helvetica,sans-Serif" font-size="14.00"> (sensed_on sole2 hole2) </text>
</g>
<!-- n9 -->
<g id="node10" class="node"><title>n9</title>
<ellipse fill="none" stroke="black" cx="748.042" cy="-497" rx="18" ry="18"/>
<ellipse fill="none" stroke="black" cx="748.042" cy="-497" rx="22" ry="22"/>
</g>
<!-- n4&#45;&gt;n9 -->
<g id="edge9" class="edge"><title>n4&#45;&gt;n9</title>
<path fill="none" stroke="black" d="M702.953,-574.324C711.155,-568.086 719.721,-560.442 726.042,-552 731.406,-544.836 735.689,-536.18 738.998,-527.917"/>
<polygon fill="black" stroke="black" points="742.29,-529.104 742.441,-518.51 735.717,-526.698 742.29,-529.104"/>
<text text-anchor="middle" x="788.042" y="-540.8" font-family="Helvetica,sans-Serif" font-size="14.00"> (removed sole2) </text>
</g>
<!-- n10 -->
<g id="node11" class="node"><title>n10</title>
<ellipse fill="none" stroke="black" cx="967.042" cy="-497" rx="89.0842" ry="18"/>
<text text-anchor="middle" x="967.042" y="-493.3" font-family="Helvetica,sans-Serif" font-size="14.00">(pickup sole2 hole2)</text>
</g>
<!-- n5&#45;&gt;n10 -->
<g id="edge10" class="edge"><title>n5&#45;&gt;n10</title>
<path fill="none" stroke="black" d="M950.945,-573.834C950.611,-563.15 950.807,-549.174 953.042,-537 953.781,-532.976 954.883,-528.815 956.149,-524.776"/>
<polygon fill="black" stroke="black" points="959.523,-525.732 959.525,-515.137 952.916,-523.418 959.523,-525.732"/>
<text text-anchor="middle" x="1070.54" y="-540.8" font-family="Helvetica,sans-Serif" font-size="14.00"> (no_human_at sole2) (robot_at hole2) </text>
</g>
<!-- n11 -->
<g id="node12" class="node"><title>n11</title>
<ellipse fill="none" stroke="black" cx="1210.04" cy="-497" rx="18" ry="18"/>
<ellipse fill="none" stroke="black" cx="1210.04" cy="-497" rx="22" ry="22"/>
</g>
<!-- n5&#45;&gt;n11 -->
<g id="edge11" class="edge"><title>n5&#45;&gt;n11</title>
<path fill="none" stroke="black" d="M1018.1,-580.477C1087.33,-569.392 1186.36,-553.346 1188.04,-552 1195.4,-546.125 1200.31,-537.392 1203.59,-528.653"/>
<polygon fill="black" stroke="black" points="1206.99,-529.525 1206.64,-518.936 1200.31,-527.431 1206.99,-529.525"/>
<text text-anchor="middle" x="1307.04" y="-540.8" font-family="Helvetica,sans-Serif" font-size="14.00"> (human_at sole2) (removed sole2) </text>
</g>
<!-- n12 -->
<g id="node13" class="node"><title>n12</title>
<ellipse fill="none" stroke="black" cx="307.042" cy="-402" rx="73.387" ry="18"/>
<text text-anchor="middle" x="307.042" y="-398.3" font-family="Helvetica,sans-Serif" font-size="14.00">(putdown sole1)</text>
</g>
<!-- n7&#45;&gt;n12 -->
<g id="edge12" class="edge"><title>n7&#45;&gt;n12</title>
<path fill="none" stroke="black" d="M318.474,-478.942C316.435,-465.394 313.542,-446.18 311.177,-430.469"/>
<polygon fill="black" stroke="black" points="314.591,-429.632 309.641,-420.264 307.669,-430.674 314.591,-429.632"/>
<text text-anchor="middle" x="366.542" y="-445.8" font-family="Helvetica,sans-Serif" font-size="14.00"> (robot_at_table) </text>
</g>
<!-- n13 -->
<g id="node14" class="node"><title>n13</title>
<ellipse fill="none" stroke="black" cx="487.042" cy="-402" rx="89.0842" ry="18"/>
<text text-anchor="middle" x="487.042" y="-398.3" font-family="Helvetica,sans-Serif" font-size="14.00">(pickup sole2 hole2)</text>
</g>
<!-- n8&#45;&gt;n13 -->
<g id="edge13" class="edge"><title>n8&#45;&gt;n13</title>
<path fill="none" stroke="black" d="M509.803,-483.892C495.79,-478.115 482.481,-469.587 474.042,-457 468.679,-449.001 469.479,-439.024 472.45,-429.83"/>
<polygon fill="black" stroke="black" points="475.804,-430.873 476.337,-420.292 469.322,-428.232 475.804,-430.873"/>
<text text-anchor="middle" x="591.542" y="-445.8" font-family="Helvetica,sans-Serif" font-size="14.00"> (no_human_at sole2) (robot_at hole2) </text>
</g>
<!-- n14 -->
<g id="node15" class="node"><title>n14</title>
<ellipse fill="none" stroke="black" cx="731.042" cy="-402" rx="18" ry="18"/>
<ellipse fill="none" stroke="black" cx="731.042" cy="-402" rx="22" ry="22"/>
</g>
<!-- n8&#45;&gt;n14 -->
<g id="edge14" class="edge"><title>n8&#45;&gt;n14</title>
<path fill="none" stroke="black" d="M643.915,-488.135C667,-482.526 691.051,-473.029 709.042,-457 716.016,-450.786 720.821,-442.036 724.115,-433.385"/>
<polygon fill="black" stroke="black" points="727.467,-434.393 727.225,-423.801 720.809,-432.232 727.467,-434.393"/>
<text text-anchor="middle" x="828.042" y="-445.8" font-family="Helvetica,sans-Serif" font-size="14.00"> (human_at sole2) (removed sole2) </text>
</g>
<!-- n15 -->
<g id="node16" class="node"><title>n15</title>
<ellipse fill="none" stroke="black" cx="970.042" cy="-402" rx="18" ry="18"/>
<ellipse fill="none" stroke="black" cx="970.042" cy="-402" rx="22" ry="22"/>
</g>
<!-- n10&#45;&gt;n15 -->
<g id="edge15" class="edge"><title>n10&#45;&gt;n15</title>
<path fill="none" stroke="black" d="M967.592,-478.942C967.993,-466.537 968.546,-449.381 969.026,-434.514"/>
<polygon fill="black" stroke="black" points="972.534,-434.302 969.358,-424.194 965.538,-434.076 972.534,-434.302"/>
<text text-anchor="middle" x="1022.04" y="-445.8" font-family="Helvetica,sans-Serif" font-size="14.00"> (removed sole2) </text>
</g>
<!-- n16 -->
<g id="node17" class="node"><title>n16</title>
<ellipse fill="none" stroke="black" cx="307.042" cy="-307" rx="132.677" ry="18"/>
<text text-anchor="middle" x="307.042" y="-303.3" font-family="Helvetica,sans-Serif" font-size="14.00">(observe_solenoid sole2 hole2)</text>
</g>
<!-- n12&#45;&gt;n16 -->
<g id="edge16" class="edge"><title>n12&#45;&gt;n16</title>
<path fill="none" stroke="black" d="M307.042,-383.942C307.042,-370.394 307.042,-351.18 307.042,-335.469"/>
<polygon fill="black" stroke="black" points="310.542,-335.264 307.042,-325.264 303.542,-335.264 310.542,-335.264"/>
<text text-anchor="middle" x="355.542" y="-350.8" font-family="Helvetica,sans-Serif" font-size="14.00"> (ontable sole2) </text>
</g>
<!-- n17 -->
<g id="node18" class="node"><title>n17</title>
<ellipse fill="none" stroke="black" cx="487.042" cy="-307" rx="18" ry="18"/>
<ellipse fill="none" stroke="black" cx="487.042" cy="-307" rx="22" ry="22"/>
</g>
<!-- n13&#45;&gt;n17 -->
<g id="edge17" class="edge"><title>n13&#45;&gt;n17</title>
<path fill="none" stroke="black" d="M487.042,-383.942C487.042,-371.537 487.042,-354.381 487.042,-339.514"/>
<polygon fill="black" stroke="black" points="490.542,-339.194 487.042,-329.194 483.542,-339.194 490.542,-339.194"/>
<text text-anchor="middle" x="540.042" y="-350.8" font-family="Helvetica,sans-Serif" font-size="14.00"> (removed sole2) </text>
</g>
<!-- n18 -->
<g id="node19" class="node"><title>n18</title>
<ellipse fill="none" stroke="black" cx="218.042" cy="-212" rx="85.5853" ry="18"/>
<text text-anchor="middle" x="218.042" y="-208.3" font-family="Helvetica,sans-Serif" font-size="14.00">(move sole2 hole2)</text>
</g>
<!-- n16&#45;&gt;n18 -->
<g id="edge18" class="edge"><title>n16&#45;&gt;n18</title>
<path fill="none" stroke="black" d="M247.672,-290.74C236.397,-285.113 225.974,-277.442 219.042,-267 213.973,-259.364 212.629,-249.686 212.905,-240.639"/>
<polygon fill="black" stroke="black" points="216.409,-240.749 213.846,-230.469 209.439,-240.104 216.409,-240.749"/>
<text text-anchor="middle" x="297.042" y="-255.8" font-family="Helvetica,sans-Serif" font-size="14.00"> (sensed_on sole2 hole2) </text>
</g>
<!-- n19 -->
<g id="node20" class="node"><title>n19</title>
<ellipse fill="none" stroke="black" cx="397.042" cy="-212" rx="18" ry="18"/>
<ellipse fill="none" stroke="black" cx="397.042" cy="-212" rx="22" ry="22"/>
</g>
<!-- n16&#45;&gt;n19 -->
<g id="edge19" class="edge"><title>n16&#45;&gt;n19</title>
<path fill="none" stroke="black" d="M345.568,-289.703C356.182,-283.778 366.98,-276.221 375.042,-267 381.029,-260.153 385.523,-251.461 388.835,-243.062"/>
<polygon fill="black" stroke="black" points="392.194,-244.061 392.199,-233.466 385.588,-241.745 392.194,-244.061"/>
<text text-anchor="middle" x="438.042" y="-255.8" font-family="Helvetica,sans-Serif" font-size="14.00"> (removed sole2) </text>
</g>
<!-- n20 -->
<g id="node21" class="node"><title>n20</title>
<ellipse fill="none" stroke="black" cx="89.0421" cy="-117" rx="89.0842" ry="18"/>
<text text-anchor="middle" x="89.0421" y="-113.3" font-family="Helvetica,sans-Serif" font-size="14.00">(pickup sole2 hole2)</text>
</g>
<!-- n18&#45;&gt;n20 -->
<g id="edge20" class="edge"><title>n18&#45;&gt;n20</title>
<path fill="none" stroke="black" d="M141.269,-203.832C121.552,-198.131 102.432,-188.407 90.0421,-172 84.3766,-164.497 82.9956,-154.588 83.412,-145.308"/>
<polygon fill="black" stroke="black" points="86.9029,-145.582 84.5134,-135.261 79.9446,-144.82 86.9029,-145.582"/>
<text text-anchor="middle" x="207.542" y="-160.8" font-family="Helvetica,sans-Serif" font-size="14.00"> (no_human_at sole2) (robot_at hole2) </text>
</g>
<!-- n21 -->
<g id="node22" class="node"><title>n21</title>
<ellipse fill="none" stroke="black" cx="347.042" cy="-117" rx="18" ry="18"/>
<ellipse fill="none" stroke="black" cx="347.042" cy="-117" rx="22" ry="22"/>
</g>
<!-- n18&#45;&gt;n21 -->
<g id="edge21" class="edge"><title>n18&#45;&gt;n21</title>
<path fill="none" stroke="black" d="M277.666,-198.933C294.628,-193.113 312.013,-184.551 325.042,-172 331.645,-165.64 336.329,-157.021 339.626,-148.539"/>
<polygon fill="black" stroke="black" points="343.035,-149.381 342.891,-138.787 336.397,-147.158 343.035,-149.381"/>
<text text-anchor="middle" x="444.042" y="-160.8" font-family="Helvetica,sans-Serif" font-size="14.00"> (human_at sole2) (removed sole2) </text>
</g>
<!-- n22 -->
<g id="node23" class="node"><title>n22</title>
<ellipse fill="none" stroke="black" cx="89.0421" cy="-22" rx="18" ry="18"/>
<ellipse fill="none" stroke="black" cx="89.0421" cy="-22" rx="22" ry="22"/>
</g>
<!-- n20&#45;&gt;n22 -->
<g id="edge22" class="edge"><title>n20&#45;&gt;n22</title>
<path fill="none" stroke="black" d="M89.0421,-98.9424C89.0421,-86.5367 89.0421,-69.3814 89.0421,-54.5144"/>
<polygon fill="black" stroke="black" points="92.5422,-54.194 89.0421,-44.194 85.5422,-54.1941 92.5422,-54.194"/>
<text text-anchor="middle" x="142.042" y="-65.8" font-family="Helvetica,sans-Serif" font-size="14.00"> (removed sole2) </text>
</g>
</g>
</svg>
