<?xml version="1.0" encoding="UTF-8" standalone="no"?>
<!DOCTYPE svg PUBLIC "-//W3C//DTD SVG 1.1//EN"
 "http://www.w3.org/Graphics/SVG/1.1/DTD/svg11.dtd">
<!-- Generated by graphviz version 2.38.0 (20140413.2041)
 -->
<!-- Title: Struc Pages: 1 -->
<svg width="563pt" height="329pt"
 viewBox="0.00 0.00 562.64 329.00" xmlns="http://www.w3.org/2000/svg" xmlns:xlink="http://www.w3.org/1999/xlink">
<g id="graph0" class="graph" transform="scale(1 1) rotate(0) translate(4 325)">
<title>Struc</title>
<polygon fill="white" stroke="none" points="-4,4 -4,-325 558.642,-325 558.642,4 -4,4"/>
<!-- n1 -->
<g id="node1" class="node"><title>n1</title>
<ellipse fill="none" stroke="black" cx="309.642" cy="-303" rx="135.376" ry="18"/>
<text text-anchor="middle" x="309.642" y="-299.3" font-family="Helvetica,sans-Serif" font-size="14.00">(observe_solenoid sole1 hole1) </text>
</g>
<!-- n2 -->
<g id="node2" class="node"><title>n2</title>
<ellipse fill="none" stroke="black" cx="220.642" cy="-212" rx="88.2844" ry="18"/>
<text text-anchor="middle" x="220.642" y="-208.3" font-family="Helvetica,sans-Serif" font-size="14.00">(move sole1 hole1) </text>
</g>
<!-- n1&#45;&gt;n2 -->
<g id="edge1" class="edge"><title>n1&#45;&gt;n2</title>
<path fill="none" stroke="black" d="M245.497,-287.07C236.124,-282.167 227.63,-275.653 221.642,-267 216.292,-259.269 214.979,-249.311 215.362,-240.055"/>
<polygon fill="black" stroke="black" points="218.848,-240.366 216.39,-230.06 211.885,-239.65 218.848,-240.366"/>
<text text-anchor="middle" x="299.642" y="-255.8" font-family="Helvetica,sans-Serif" font-size="14.00"> (sensed_on sole1 hole1) </text>
</g>
<!-- n3 -->
<g id="node3" class="node"><title>n3</title>
<ellipse fill="none" stroke="black" cx="399.642" cy="-212" rx="18" ry="18"/>
<ellipse fill="none" stroke="black" cx="399.642" cy="-212" rx="22" ry="22"/>
</g>
<!-- n1&#45;&gt;n3 -->
<g id="edge2" class="edge"><title>n1&#45;&gt;n3</title>
<path fill="none" stroke="black" d="M352.409,-285.848C361.606,-280.873 370.65,-274.64 377.642,-267 383.782,-260.291 388.323,-251.64 391.629,-243.236"/>
<polygon fill="black" stroke="black" points="394.996,-244.211 394.967,-233.616 388.382,-241.917 394.996,-244.211"/>
<text text-anchor="middle" x="440.642" y="-255.8" font-family="Helvetica,sans-Serif" font-size="14.00"> (removed sole1) </text>
</g>
<!-- n4 -->
<g id="node4" class="node"><title>n4</title>
<ellipse fill="none" stroke="black" cx="91.6419" cy="-117" rx="91.784" ry="18"/>
<text text-anchor="middle" x="91.6419" y="-113.3" font-family="Helvetica,sans-Serif" font-size="14.00">(pickup sole1 hole1) </text>
</g>
<!-- n2&#45;&gt;n4 -->
<g id="edge4" class="edge"><title>n2&#45;&gt;n4</title>
<path fill="none" stroke="black" d="M140.63,-204.323C120.539,-198.605 101.158,-188.749 88.6419,-172 83.0064,-164.459 82.2455,-154.541 83.4053,-145.265"/>
<polygon fill="black" stroke="black" points="86.8841,-145.713 85.3734,-135.227 80.0149,-144.366 86.8841,-145.713"/>
<text text-anchor="middle" x="206.142" y="-160.8" font-family="Helvetica,sans-Serif" font-size="14.00"> (no_human_at sole1) (robot_at hole1) </text>
</g>
<!-- n5 -->
<g id="node5" class="node"><title>n5</title>
<ellipse fill="none" stroke="black" cx="349.642" cy="-117" rx="18" ry="18"/>
<ellipse fill="none" stroke="black" cx="349.642" cy="-117" rx="22" ry="22"/>
</g>
<!-- n2&#45;&gt;n5 -->
<g id="edge3" class="edge"><title>n2&#45;&gt;n5</title>
<path fill="none" stroke="black" d="M280.822,-198.741C297.608,-192.925 314.755,-184.414 327.642,-172 334.244,-165.64 338.929,-157.021 342.226,-148.539"/>
<polygon fill="black" stroke="black" points="345.635,-149.381 345.491,-138.787 338.997,-147.158 345.635,-149.381"/>
<text text-anchor="middle" x="446.642" y="-160.8" font-family="Helvetica,sans-Serif" font-size="14.00"> (human_at sole1) (removed sole1) </text>
</g>
<!-- n6 -->
<g id="node6" class="node"><title>n6</title>
<ellipse fill="none" stroke="black" cx="91.6419" cy="-22" rx="18" ry="18"/>
<ellipse fill="none" stroke="black" cx="91.6419" cy="-22" rx="22" ry="22"/>
</g>
<!-- n4&#45;&gt;n6 -->
<g id="edge5" class="edge"><title>n4&#45;&gt;n6</title>
<path fill="none" stroke="black" d="M91.6419,-98.9424C91.6419,-86.5367 91.6419,-69.3814 91.6419,-54.5144"/>
<polygon fill="black" stroke="black" points="95.142,-54.194 91.6419,-44.194 88.142,-54.1941 95.142,-54.194"/>
<text text-anchor="middle" x="144.642" y="-65.8" font-family="Helvetica,sans-Serif" font-size="14.00"> (removed sole1) </text>
</g>
</g>
</svg>
